<svg width="1017" height="668" viewBox="0 0 1017 668" fill="none" xmlns="http://www.w3.org/2000/svg">
<path d="M867.514 347.774C866.948 347.18 866.823 346.213 865.21 346.402C864.847 346.857 864.322 347.281 864.206 347.647C863.66 350.141 862.993 352.646 862.344 355.171C861.955 357.999 861.881 360.739 862.122 363.37L859.852 367.33L859.761 375.318C859.839 375.505 859.985 375.659 860.19 375.768L861.321 376.468C862.619 376.018 863.898 375.548 865.237 375.073C864.749 377.139 866.043 378.846 863.504 381.407L860.67 380.593C860.329 381.002 859.762 381.452 859.688 381.792C859.487 383.323 859.14 384.891 858.649 386.486C858.038 387.899 857.833 389.25 858.046 390.452C858.358 391.818 858.02 393.42 857.071 395.074C855.815 397.03 857.564 398.031 856.296 399.766C855.028 401.502 856.972 401.172 857.269 401.902C858.042 401.287 858.92 400.741 859.852 400.293C860.553 400.053 861.274 400.321 861.694 400.484C863.039 399.875 864.403 398.797 863.969 400.503C863.176 400.555 862.414 400.548 861.694 400.484C860.518 401.269 859.307 402.023 858.069 402.742C859.021 403.324 857.655 404.468 857.437 405.354C857.219 406.241 855.895 407.359 856.867 407.961C858.273 407.347 859.438 405.643 861.083 406.184C858.909 408.223 858.909 408.223 856.867 407.961C855.519 408.637 855.393 409.271 855.611 409.919L856.055 411.012L854.178 414.826L856.949 417.734C856.212 418.96 855.579 420.182 855.057 421.393C854.982 422.246 855.011 423.068 855.142 423.853C854.748 428.177 855.135 432.277 854.146 436.744C853.84 438.306 856.441 438.318 855.293 440.109C854.145 441.901 856.078 442.884 854.355 444.838C852.632 446.793 854.502 447.293 853.812 448.799C853.123 450.306 854.208 451.653 852.813 453.534C851.417 455.415 853.472 456.387 852.06 458.18C854.791 460.559 852.046 464.716 853.179 468.972L855.911 471.839L854.906 474.13L861.209 480.746L864.185 480.524L865.941 482.368C866.563 482.363 867.279 482.165 867.937 481.816C868.596 481.467 869.145 480.993 869.47 480.496C879.617 468.01 880.332 466.878 883.358 460.229C883.988 459.869 884.6 459.488 885.192 459.087C885.483 458.906 885.455 458.597 885.699 458.086L884.079 456.386C883.942 456.242 884.117 455.938 884.125 455.737C885.074 454.852 886.004 453.946 886.932 453.108L886.014 452.145L889.904 443.196C888.278 441.14 892.963 437.766 891.793 435.492C891.692 435.317 891.548 435.165 891.364 435.041L893.579 430.398L896.501 424.335C894.826 422.996 897.133 420.678 897.897 418.832C898.661 416.985 900.164 414.939 899.273 413.307C898.805 412.816 900.307 411.326 900.589 410.367C901.404 407.738 904.221 404.841 903.606 402.384C902.992 399.927 907.447 396.729 905.571 394.83L911.967 382.1L910.933 381.014C912.624 377.774 913.133 374.669 912.405 372.035L916.791 363.886L916.05 363.108C917.022 360.087 919.914 356.85 919.772 354.263C919.631 351.675 922.139 348.871 922.954 346.243C923.046 345.99 923.426 345.623 923.309 345.5C921.982 344.107 924.683 341.576 924.416 340.111C924.319 338.85 924.601 337.468 925.247 336.036C926.173 333.174 929.06 330.071 928.456 327.347C927.973 325.167 932.296 321.691 930.504 319.74L935.692 309.296C933.565 307.063 938.545 303.44 937.402 300.986C936.463 299.025 941.382 295.407 939.305 293.436C941 290.455 942.223 287.502 942.945 284.643C943.717 281.768 944.952 278.809 946.626 275.823C947.73 273.079 949.304 270.271 950.633 267.485L955.181 258.321L954.088 257.174C954.888 256.48 956.43 255.52 956.682 254.808C957.743 251.602 961.973 248.445 962.728 245.266L968.16 246.159L970.463 248.576L973.458 248.375L979.703 254.929L978.716 256.751L984.103 262.405L983.083 264.541L985.562 267.142L984.771 269.658L988.108 273.16L987.24 275.594L989.738 278.216L988.811 280.588L991.309 283.21L990.304 285.5L992.041 287.323L991.036 289.614L992.773 291.437L991.893 293.649C992.693 294.489 994.174 295.068 994.137 296.005C993.848 297.796 994.211 299.396 995.193 300.667C993.633 303.629 995.751 305.574 993.985 308.599L995.781 310.484L994.809 312.46L996.51 314.664C994.995 316.488 996.06 317.327 997.333 318.524C996.425 319.889 995.794 321.251 995.467 322.559C995.405 323.609 996.125 324.434 995.054 325.819L997.688 328.584C996.446 331.74 997.672 334.142 996.535 337.2C998.974 338.227 996.361 341.617 999.115 342.904L996.021 346.626L998.46 349.187C996.246 351.74 997.06 353.779 996.503 356.052C996.265 356.918 997.115 357.531 997.662 358.593C996.093 362.428 995.534 366.1 996.016 369.409C996.146 371.503 995.748 373.767 994.837 376.117C994.418 377.655 994.285 379.132 994.44 380.508L996.741 383.481L993.884 385.848C994.162 386.325 994.38 386.833 994.535 387.368C994.58 387.764 993.987 388.396 993.949 388.843C993.985 389.564 994.093 390.26 994.273 390.925L992.572 394.367C992.35 395.877 995.366 396.185 993.284 398.461C993.86 400.818 993.488 403.533 992.2 406.381C991.726 407.759 991.619 409.067 991.885 410.233C992.143 412.454 991.906 414.854 991.816 417.129C992.235 419.413 991.61 422.06 990.01 424.781C990.829 426.59 990.648 428.83 989.493 431.207C988.36 433.641 989.441 435.613 987.468 438.211C989.887 438.729 985.637 441.865 988.097 442.356L985.112 448.491C987.3 449.673 986.079 452.295 986.223 454.326C986.709 456.249 986.526 458.429 985.685 460.731C984.344 463.296 985.389 465.159 983.967 467.709C982.545 470.259 984.04 472.037 981.764 474.596L984.497 477.463L979.259 488.134L981.21 490.182L978.487 492.76L978.529 498.38L976.446 499.677C976.821 501.614 976.619 503.762 975.85 506.021C974.453 508.457 976.245 509.919 974.425 512.26C974.04 512.761 973.501 513.521 973.716 513.746C975.219 515.324 971.834 518.182 972.75 519.701C973.665 521.219 970.988 523.148 971.607 525.47L971.841 525.716C970.73 527.741 969.768 529.756 968.961 531.753C968.298 533.635 966.063 535.679 967.296 537.392C968.193 538.335 964.883 540.853 965.926 542.227C966.969 543.6 963.581 546.037 964.589 547.792C965.376 548.967 964.332 551.216 964.005 553.312L965.527 554.91L964.522 557.2L966.24 559.003L965.299 561.22C966.688 562.052 966.489 564.003 969.118 563.835C970.128 562.945 969.6 561.903 971.374 561.255C971.1 560.48 970.125 559.944 972.563 559.438C972.221 560.044 971.823 560.651 971.374 561.255C971.822 561.65 972.226 562.074 972.584 562.525L976.786 562.127L978.39 559.073L976.031 559.105C976.308 557.176 976.368 555.306 976.211 553.51C975.984 552.575 976.875 551.628 977.012 550.727C977.15 549.826 980.929 548.287 979.485 546.772C978.939 546.198 980.165 544.488 980.66 543.266C981.155 542.044 979.896 541 981.202 539.306C982.178 537.88 983.035 536.452 983.769 535.031L981.603 532.758L984.13 530.531C985.316 528.649 986.15 526.778 986.605 524.976L982.166 524.149C982.466 522.233 984.684 521.635 986.32 520.355C986.625 519.839 987.368 519.017 987.434 518.389C987.378 516.453 987.975 514.323 989.184 512.142C987.838 510.728 989.816 508.484 990.541 506.597C990.749 505.978 989.933 505.54 990.12 504.901C990.65 502.809 992.876 500.476 992.346 498.456C991.816 496.436 995.595 493.364 994.637 491.383C993.679 489.402 997.665 486.756 995.584 485.408C996.114 483.883 996.857 482.327 997.8 480.765C999.045 479.076 997.222 478.416 998.262 476.789C999.301 475.162 1000.48 473.68 998.885 472.844C1000.46 471.147 998.966 470.281 999.469 468.858C1000.21 467.416 1000.6 466.01 1000.63 464.708C1000.18 462.567 1000.36 460.187 1001.17 457.681C1002.2 455.21 1001.36 453.284 1002.85 450.729C1003.93 449.047 1004.23 447.41 1003.7 446.118C1002.66 445.033 1004.71 443.205 1003.71 442.295C1002.71 441.384 1004.53 439.954 1004.72 438.826C1004.8 438.166 1004.81 437.525 1004.75 436.911C1004.62 435.723 1005.88 434.054 1004.8 433.128C1005.94 430.955 1006.54 428.835 1006.55 426.881C1006.81 425.547 1007.88 424.162 1007.28 422.838C1006.68 421.513 1009.34 419.564 1008.63 417.983C1008.18 417.022 1010.23 414.928 1010.14 413.78C1010.04 412.633 1009.5 411.859 1010.61 410.582L1008.66 408.534C1009.56 406.638 1010.04 404.793 1010.09 403.071C1010.02 401.254 1010.24 399.256 1010.15 397.419C1010.06 395.583 1012.93 393.37 1011.24 392.01C1012.53 389.739 1011.54 388.138 1011.8 386.182C1012.06 384.224 1012.13 382.284 1012.43 380.301C1012.16 378.5 1012.34 376.533 1012.99 374.472C1011.27 373.647 1013.32 371.82 1013.59 370.506C1013.82 369.392 1013.9 368.314 1013.84 367.283C1013.72 365.44 1013.82 363.522 1014.15 361.543C1014.36 359.813 1015.25 357.889 1015.51 355.998C1015.77 349.306 1016.37 342.407 1016.45 335.598C1016.79 334.006 1016.58 332.562 1015.83 331.386C1015.12 330.649 1015.99 328.905 1015.87 327.67C1015.76 326.436 1017.3 324.009 1016.5 323.102C1015.51 321.826 1015.18 320.203 1015.53 318.388C1015.71 316.634 1015.42 315.026 1014.66 313.642C1014.47 312.031 1014.68 310.279 1015.29 308.451C1015.23 306.796 1015.33 305.087 1015.59 303.334C1016.1 301.422 1012.39 301.153 1015.09 298.489C1012.19 297.881 1014.65 294.883 1013.55 293.381C1012.5 291.903 1012.54 289.885 1013.67 287.725C1011.32 286.445 1014.03 282.803 1011.37 281.618L1012.31 279.4L1010.57 277.577L1011.58 275.286L1009.84 273.463L1010.83 271.507L1007.26 267.759L1007.78 266.624C1007.93 266.366 1008.23 265.984 1008.13 265.881C1006.8 264.488 1007.52 262.313 1006.85 260.705C1006.36 259.98 1005.74 259.328 1005 258.759L1005.88 256.547L1003.3 253.843L1004.3 251.553L1001.67 248.788L1002.67 246.497L998.265 241.868L999.171 240.031L991.814 232.309L989.569 232.532L990.197 230.542L987.571 230.643L984.878 227.816L981.883 228.017L980.126 226.174L970.067 227.184L957.191 235.203C954.25 238.666 951.711 241.716 949.03 244.756C947.422 246.321 945.9 247.911 944.473 249.52C943.53 251.082 942.787 252.638 942.257 254.164C941.874 255.161 941.351 256.177 940.695 257.193C939.915 258.093 939.006 258.966 937.991 259.79L938.986 260.835C938.17 262.975 935.755 265.458 937.942 266.708L935.15 268.446C932.759 273.394 930.57 278.413 927.788 283.507C926.255 286.29 927.35 288.414 925.531 291.244C923.812 294.049 922.449 296.844 921.463 299.587C920.851 301.176 921.655 302.438 920.524 304.317C919.452 305.77 918.941 307.229 919.059 308.493C919.353 309.778 917.911 311.819 917.194 313.505C916.617 315.036 915.877 316.589 914.979 318.149C913.939 319.775 915.824 320.429 914.456 322.13C912.444 324.688 914.69 326.488 912.351 329.119C910.012 331.751 912.259 332.995 910.742 335.376C909.255 337.918 908.008 340.452 907.009 342.956C906.906 343.795 906.985 344.581 907.242 345.291L903.422 352.989C904.862 355.128 901.694 358.145 901.124 360.752C902.082 361.2 901.555 362.18 901.19 363.191C901.103 364.042 901.209 364.834 901.504 365.541L899.42 366.839C898.417 368.573 899.816 369.693 898.44 371.595C897.566 372.863 896.94 374.134 896.584 375.361C896.468 375.727 897.534 376.01 897.443 376.262C895.272 379.768 896.174 382.666 894.515 386.082C895.569 387.188 893.898 388.848 893.314 390.257C892.73 391.664 894.569 391.922 893.265 393.551C891.961 395.179 892.818 396.636 892.265 398.285L890.724 399.246C889.306 401.7 888.514 404.111 888.391 406.344C888.473 408.382 885.227 411.318 886.45 413.298C886.684 413.543 885.943 414.299 885.802 414.778C884.858 418.107 880.785 421.916 882.132 424.863L877.421 434.553L877.371 439.937C876.161 441.245 874.715 442.864 873.216 444.287C873.449 445.088 874.465 445.598 871.985 446.13C872.356 445.515 872.767 444.9 873.216 444.287C872.631 443.673 871.928 442.935 871.03 441.992L873.404 438.491C872.603 437.162 872.045 436.368 871.715 435.464C871.578 435.32 872.478 434.662 872.922 434.222L870.854 432.051C872.469 425.105 870.173 419.42 873.49 412.099L871.812 410.338L872.795 408.094L870.746 405.943L873.663 401.548L869.253 401.031C867.623 399.863 866.485 398.36 865.892 396.597L869.243 396.142C870.305 394.469 868.235 394.387 868.234 392.854L868.932 391.146L866.98 389.098L869.688 386.922C872.144 386.992 872.208 388.453 873.298 389.178C873.631 388.97 874.173 388.633 874.214 388.607C874.437 386.053 874.64 383.479 874.718 380.982C874.543 380.798 873.878 380.657 873.418 380.454C871.616 381.838 871.786 383.201 870.754 384.626C868.843 384.642 868.561 384.067 869.246 381.649L867.587 379.909C868.652 378.657 868.132 377.414 870.13 376.236L870.387 372.812L864.015 373.093C863.097 370.459 863.901 367.156 866.271 363.822C869.837 363.699 872.955 364.267 875.351 365.478C876.141 364.981 876.788 364.372 877.194 363.742C877.6 363.113 877.743 362.497 877.602 361.987C876.753 360.33 878.317 358.278 879.017 356.504L877.261 354.66L878.2 352.509C875.496 352.528 871.863 353.942 870.937 351.158C868.791 353.506 867.706 354.736 866.349 356.169C866.56 357.017 868.651 357.052 866.9 358.698C864.876 357.967 864.876 357.967 866.349 356.169L864.964 354.715C865.466 352.802 867.569 350.48 866.203 349.047C866.211 348.846 867.092 348.167 867.514 347.774ZM858.747 438.089C858.692 437.405 855.637 438.1 857.889 436.143C859.338 435.992 859.825 436.503 858.669 438.007L858.747 438.089ZM872.695 358.091C872.282 358.19 871.888 358.215 871.552 358.165C871.215 358.115 870.946 357.991 870.769 357.806C870.592 357.62 870.513 357.379 870.539 357.102C870.566 356.826 870.696 356.526 870.919 356.227C871.307 356.146 871.673 356.129 871.985 356.182C872.298 356.235 872.548 356.353 872.715 356.529C872.882 356.704 872.96 356.93 872.943 357.188C872.926 357.446 872.814 357.727 872.617 358.009L872.695 358.091ZM872.178 361.939L872.574 361.17C873.002 361.209 873.395 361.293 873.743 361.42C873.743 361.42 873.563 361.859 873.452 362.091L872.178 361.939ZM865.202 405.838L864.203 405.905C864.486 405.531 864.829 405.164 865.222 404.814C865.222 404.814 865.814 404.739 866.12 404.712L865.202 405.838ZM867.62 409.979L867.223 410.748C866.782 410.708 866.382 410.617 866.035 410.476C866.035 410.476 866.215 410.038 866.326 409.806L867.62 409.979ZM969.604 557.168C969.854 557.013 970.486 556.978 970.522 557.086C970.592 557.394 970.578 557.732 970.483 558.09C970.177 558.117 969.643 558.254 969.606 558.146C969.543 557.842 969.543 557.513 969.604 557.168Z" fill="#84A17D"/>
<path d="M584.9 8.89991L583.44 10.3641L586.035 13.0888L585.128 15.4812L592.134 22.8346L591.168 25.1664L593.763 27.8902C592.093 30.04 594.16 31.2334 592.676 33.3C594.166 34.1667 593.586 35.9971 593.716 37.3191C594.338 38.7792 595.403 40.0154 596.865 40.9719L595.823 43.1541L598.497 45.9604L597.544 47.9575L601.018 51.603L600.052 53.9347L605.34 59.4852L604.316 61.7555L615.049 73.0213L614.102 74.8841L618.57 79.5751L617.485 81.8502L621.934 86.5202L620.829 88.7751L625.259 93.4249L624.154 95.6798L628.681 100.432L627.709 102.408L630.324 105.153L629.319 107.444L631.114 109.327L630.349 110.685C630.156 112.503 632.043 113.09 632.663 114.368L631.735 116.252L635.307 120L634.179 122.302C634.882 123.039 636.683 123.745 636.56 124.8C636.486 126.515 636.793 128.104 637.471 129.52C637.452 131.105 637.224 132.754 636.789 134.449L640.106 137.931L639.101 140.221L640.702 141.901L639.761 144.118C640.658 145.061 642.379 145.752 640.489 147.81L643.748 151.231L642.937 157.349L645.26 159.787L644.274 162.097L646.889 164.842L645.865 167.113L647.64 168.976L646.69 170.906L649.187 174.083L648.215 176.059C649.17 176.789 649.968 177.626 650.595 178.559C651.104 179.581 649.736 181.281 650.917 182.242C651.503 182.857 650.627 184.446 651.16 185.354C651.694 186.263 652.936 187.218 651.524 189.012L653.28 190.855L652.276 193.145L654.012 194.968L653.007 197.259L655.525 199.901C655.226 200.772 654.43 201.888 654.806 202.144C656.169 203.156 655.591 204.919 655.68 206.266C655.769 207.614 656.969 208.107 656.394 209.803C655.819 211.5 657.717 211.819 658.568 212.921L657.712 215.02L661.206 218.687L660.181 220.957L666.426 227.511L672.639 225.6L673.706 223.793L675.311 223.806C677.201 224.326 672.594 228.272 677.327 227.315L678.169 225.551L684.961 221.321L689.384 216.347L688.755 214.78L691.137 212.611L694.518 206.263C698.166 204.448 696.316 201.879 699.806 199.967C699.962 199.868 700.1 199.754 700.213 199.633C700.326 199.513 700.412 199.387 700.464 199.264C701.569 197.009 702.679 194.62 703.821 192.473C704.963 190.327 708.786 188.207 707.842 186.379C709.993 184.387 713.165 183.326 713.266 181.271C716.142 181.015 719.375 178.903 721.968 179.116L727.787 181.53L731.648 181.54L730.595 184.546L738.557 192.904L737.606 194.833L741.178 198.582L740.05 200.883C740.578 201.64 741.231 202.325 742.002 202.931C743.191 203.692 741.278 205.308 741.995 206.199C742.712 207.091 743.478 207.756 744.297 208.616L743.418 210.829L745.994 213.533L744.989 215.823L746.725 217.646L745.992 219.245C745.825 220.883 747.693 221.449 748.375 222.722L747.582 224.26C747.235 225.847 749.319 226.083 749.345 227.992C747.689 230.296 751.018 230.932 751.489 232.891C748.738 235.648 754.613 235.612 751.209 238.45L753.98 241.359L752.994 243.67L754.712 245.472L753.707 247.763L757.024 251.245C756.615 252.942 756.393 254.597 756.362 256.194C756.604 257.773 757.944 258.831 757.212 260.919C756.93 261.878 758.656 262.435 759.495 263.316L758.657 265.502L761.213 268.186L760.228 270.496L762.843 273.241L761.818 275.511L763.672 277.457L762.667 279.747L764.345 281.509L763.419 283.881C766.87 284.995 764.517 289.006 766.599 290.843C764.749 293.431 767.556 293.869 768.352 295.332L767.453 297.524L769.151 299.306L768.146 301.596L769.902 303.44L768.974 305.323L771.609 308.088L770.503 310.343L774.075 314.092L772.928 316.372L776.499 320.121L775.546 322.118L778.239 324.944L780.926 324.837L782.663 326.661L795.662 325.321C797.415 323.119 801.436 325.25 802.689 321.826C801.809 321.46 799.839 322.458 799.451 321.493C796.965 322.16 796.965 322.16 796.628 320.411C799.043 319.462 798.551 321.106 799.451 321.493L801.97 318.423L805.637 316.139L805.234 313.974C806.486 312.64 808.163 310.845 809.858 309.071C809.858 309.071 810.4 308.734 811.12 308.514L813.075 309.451L816.372 308.311L817.337 304.447C816.05 303.583 812.344 304.293 811.919 302.174L807.936 303.708C807.936 303.708 807.474 303.572 807.624 303.381L815.127 287.84C815.127 287.84 815.752 287.451 816.044 287.269C815.608 287.044 815.294 286.726 815.121 286.336C814.947 285.945 814.917 285.49 815.034 284.999C815.15 284.507 815.41 283.99 815.798 283.478C816.185 282.966 816.692 282.471 817.287 282.024L815.511 280.16C813.267 281.916 813.282 283.604 812.379 285.374C811.476 287.144 810.163 288.484 811.756 289.319L808.418 296.13L803.483 306.351L795.13 315.633L789.779 314.755L788.061 312.953L789.011 311.023L785.44 307.275L786.437 305.185L783.198 301.785L784.047 295.707L781.705 293.249L782.669 290.985L779.837 291.149C778.912 288.639 779.524 285.514 781.568 282.304L777.737 282.046L778.526 280.086L775.911 277.341L776.872 275.144L774.547 275.352L775.123 266.409L771.884 263.009C772.956 262.113 773.733 261.466 774.491 260.798C775.241 258.797 772.54 258.749 772.588 256.5L773.178 255.447C772.904 253.627 770.641 252.784 769.733 251.065L770.502 249.085L768.361 249.276C767.797 248.126 769.771 246.505 769.378 244.628L766.372 241.474L767.358 239.163L762.909 234.493L766.058 228.321L761.687 223.733L762.516 221.258L760.095 218.23L761.023 216.346L756.964 212.086L757.345 205.517C757.822 203.758 757.353 202.247 756.029 201.278C755.288 200.499 754.546 199.721 753.804 198.943L754.283 193.521L752.046 193.543C751.039 193.083 750.47 192.289 750.428 191.287C751.206 190.64 751.964 189.972 752.741 189.324C752.737 188.902 752.942 188.351 752.708 188.105C749.878 185.134 747.049 182.165 744.239 179.215L745.18 176.997C745.074 175.561 742.761 176.48 741.676 176.177L742.342 174.227L739.669 174.489L733.405 167.914L730.794 168.169L728.218 165.466C724.918 166.183 724.105 163.587 720.217 165.291C718.091 166.125 715.959 168.139 713.413 167.767L699.662 176.33C699.45 178.616 696.267 180.99 694.912 183.401C693.557 185.811 692.416 188.447 691.178 190.98C689.94 193.514 688.927 196.005 687.425 198.54C685.922 201.074 683.759 203.891 681.54 207.067C680.29 207.846 678.948 208.388 678.085 207.065L678.923 204.879L675.469 201.253L676.455 198.942L674.738 197.14L675.742 194.849L673.967 192.985L674.866 190.793C673.401 187.114 672.659 183.11 672.655 178.854L670.293 176.376C670.37 174.774 670.598 173.129 670.975 171.448C671.553 169.684 668.774 169.555 670.041 167.33C671.307 165.105 668.391 164.833 669.396 162.542C669.98 161.134 666.57 161.039 667.653 158.83C668.736 156.622 666.243 156.445 665.684 155.161C666.07 154.308 666.192 153.494 666.04 152.779C665.889 152.065 665.468 151.469 664.81 151.038L665.732 148.8L663.995 146.977L665 144.686L662.365 141.921L663.16 140.316C662.82 138.941 661.93 137.816 660.566 137.036L657.535 137.129L660.473 134.778L661.849 131.832L659.273 129.128L660.258 126.817L658.541 125.014L659.546 122.724L656.911 119.959L657.82 118.055L656.243 115.773L656.971 113.819C655.937 112.733 654.388 111.805 654.842 110.608C655.154 109.876 655.23 109.184 655.063 108.584C654.896 107.985 654.491 107.497 653.88 107.16C652.429 106.334 654.128 104.493 653.495 103.549C652.861 102.605 651.719 101.685 653.131 99.8921L650.477 97.106L651.501 94.8365L649.725 92.9721L650.695 91.0632L647.124 87.3141L648.209 85.039L644.658 81.3109L645.743 79.0358L641.294 74.3658L642.288 72.3429L636.122 65.87L637.088 63.5391L634.551 60.8758L635.533 58.6322L629.308 52.0978L630.039 50.5657C630.131 50.3134 630.347 49.9828 630.249 49.8801L620.492 39.6387L621.42 37.7548L616.795 32.9005L613.602 32.9636L614.15 29.3585L610.581 29.166L608.942 27.4455L609.9 25.3151L602.796 17.859L603.799 15.6356C602.743 15.085 603.004 13.6168 600.777 13.9272L599.51 16.1523L592.771 16.4651L597.322 11.3465L600.615 10.8298C601.8 9.63484 600.92 9.26859 600.143 8.87161C598.105 9.0317 596.865 10.5873 595.208 11.3578L592.186 11.7386L592.125 14.8118C589.319 14.8619 589.454 12.9829 588.025 12.1105L592.065 7.57074L595.016 8.50698C595.33 7.08886 594.987 5.85101 594.038 4.97135L596.559 2.87894C597.299 1.63464 596.797 0.968422 594.692 1.26757L593.742 3.19748L590.067 5.68203L588.3 8.21835C586.889 8.96703 585.514 9.82323 584.9 8.89991ZM805.608 309.14C805.364 308.117 804.514 307.504 806.828 307.075C806.531 307.628 806.117 308.183 805.605 308.718C805.776 308.818 805.885 308.963 805.922 309.14C805.959 309.318 805.922 309.521 805.815 309.733C805.708 309.946 805.534 310.16 805.309 310.356C805.084 310.552 804.814 310.725 804.524 310.859C803.429 312.638 802.17 314.414 800.758 316.175C799.884 316.543 799.002 316.875 798.117 317.167L799.649 313.896L804.524 310.859C803.878 310.25 804.252 309.528 805.608 309.14Z" fill="#84A17D"/>
<path d="M863.349 207.091L862.003 205.677C860.075 205.605 858.754 207.146 856.992 208.014L855.709 210.152L847.919 212.359C846.93 214.248 849.496 214.641 849.999 215.796C849.318 218.737 847.206 221.907 844.015 224.778L841.893 224.99L840.713 227.095L837.854 227.44L833.978 229.853C833.334 231.756 831.544 233.85 831.543 235.939L835.018 235.962L834.121 238.087L835.116 239.132L837.906 237.949L839.242 235.518L843.475 236.406L853.246 216.418C853.455 216.288 854.038 215.925 854.78 215.658C857.959 215.441 855.866 217.495 855.571 218.788L858.186 221.533L857.325 223.277C857.79 224.794 859.096 225.896 861.042 226.412C862.489 224.302 863.03 222.217 862.576 220.496L866.426 222.864L869.46 221.17L868.897 219.465L865.799 219.697L864.491 218.325L862.409 219.066L857.648 214.068L860.518 211.367L857.955 210.907C859.345 209.16 861.572 208.361 863.349 207.091ZM841.838 232.041L840.859 232.128C841.152 231.75 841.486 231.378 841.858 231.016C841.858 231.016 842.47 230.962 842.776 230.934L841.838 232.041Z" fill="#84A17D"/>
<path d="M870.671 331.576L869.691 333.753L871.486 335.637L878.419 333.506C882.391 330.706 880.02 328.984 881.025 326.694C881.471 325.699 880.14 324.928 878.937 324.502C876.645 325.93 878.429 326.059 878.444 326.703C878.459 327.346 877.845 327.467 877.204 328.258C875.223 326.946 874.218 325.124 872.499 323.877C869.022 326.5 872.177 327.929 869.486 330.193C869.233 330.415 870.242 331.125 870.671 331.576Z" fill="#84A17D"/>
<path d="M869.847 376.15C870.894 376.901 871.044 378.244 872.867 378.415C873.075 378.284 873.526 378.199 873.533 377.999L876.166 373.096L874.214 371.047L876.473 366.867L875.107 365.433C872.391 366.955 869.858 368.698 867.607 370.594L870.758 370.557C870.722 371.982 874.099 371.903 872.741 374.38L869.847 376.15Z" fill="#84A17D"/>
<path d="M876.91 289.898L879.832 292.06L882.675 290.583L882.949 286.202C882.571 285.397 881.799 284.804 880.72 284.49L878.531 286.93L875.78 286.065L873.655 287.388L873.217 291.806L876.91 289.898Z" fill="#84A17D"/>
<path d="M868.304 257.726C867.86 258.166 866.935 258.938 867.033 259.04C868.568 260.303 864.817 263.683 868.893 263.919L866.095 268.37L869.471 271.914C869.916 271.474 870.71 270.914 870.701 270.626C870.745 268.999 870.5 267.488 870.463 265.846C870.287 265.662 871.29 264.972 871.734 264.532L869.529 262.218L870.509 260.041L868.304 257.726Z" fill="#84A17D"/>
<path d="M871.732 264.532L874.034 266.95L877.476 265.753L878.95 260.331L876.343 261.498L873.017 260.795C871.229 262.332 874.991 262.796 871.732 264.532Z" fill="#84A17D"/>
<path d="M825.969 258.731L824.174 256.847C821.382 259.63 821.298 262.26 819.529 264.863C820.166 266.229 821.426 266.228 823.476 264.755C824.128 262.652 822.912 261.027 825.969 258.731Z" fill="#84A17D"/>
<path d="M869.944 300.078C870.381 297.216 870.374 294.475 869.921 291.901C869.824 291.798 869.332 291.909 869.048 291.89C866.098 294.02 867.673 295.324 867.301 297.025C866.929 298.725 867.045 299.893 866.899 301.551L869.944 300.078Z" fill="#84A17D"/>
<path d="M833.093 266.207C835.385 264.78 834.275 263.545 835.614 262.581C834.875 260.691 830.245 262.66 830.602 260.317L828.644 261.537L828.298 264.101L830.907 263.913L833.093 266.207Z" fill="#84A17D"/>
<path d="M863.423 233.09L862.224 235.664L865.828 233.942C866.505 231.725 863.993 231.528 863.877 229.315C864.018 228.836 865.633 227.047 863.015 226.947C861.382 228.16 861.501 229.261 860.808 230.345L863.423 233.09Z" fill="#84A17D"/>
<path d="M875.109 216.086C873.353 214.243 872.045 212.87 870.153 211.373L868.2 215.037L871.196 215.325C872.856 216.021 869.423 218.551 871.621 218.976C871.922 218.994 872.235 218.996 872.556 218.982C874.276 218.139 873.256 217.208 875.109 216.086Z" fill="#84A17D"/>
<path d="M872.967 239.906C874.97 241.172 869.676 242.445 870.845 243.741C871.96 243.797 873.062 242.654 874.346 242.05C875.766 241.472 877.201 240.971 878.632 240.556L879.948 238.104C879.109 237.224 876.967 238.46 876.093 237.96L872.967 239.906Z" fill="#84A17D"/>
<path d="M818.002 286.05L820.127 284.726L822.629 278.99L819.57 279.264L817.287 282.024L818.418 283.212L818.002 286.05Z" fill="#84A17D"/>
<path d="M867.845 310.492C865.486 313.103 866.755 314.924 866.262 317.124C866.148 317.423 867.019 317.501 867.518 317.745C869.351 316.603 868.887 315.489 869.764 314.388C867.343 313.937 871.492 310.766 868.843 310.425C868.523 310.424 868.189 310.446 867.845 310.492Z" fill="#84A17D"/>
<path d="M868.303 257.726C868.595 257.544 869.136 257.207 869.178 257.181C870.062 254.516 869.539 252.179 867.709 250.622C865.834 251.789 866.298 252.904 865.083 254.346L868.303 257.726Z" fill="#84A17D"/>
<path d="M866.367 333.54C862.684 336.225 865.177 337.936 863.825 340.279C863.584 340.723 864.586 341.078 865.347 341.877L866.841 339.543C868.07 337.766 866.098 336.742 867.594 334.897C867.852 334.54 866.796 333.99 866.367 333.54Z" fill="#84A17D"/>
<path d="M866.671 327.376C866.08 328.032 865.538 328.697 865.048 329.366C864.709 330.012 864.432 330.654 864.221 331.285L866.367 333.538C866.867 333.227 867.275 332.679 867.658 332.245C868.041 331.811 868.809 330.875 869.364 330.203L866.671 327.376Z" fill="#84A17D"/>
<path d="M845.277 220.598L844.38 219.655C842.082 219.683 840.614 221.348 838.65 222.701L839.302 224.221C839.867 224.181 840.472 224.056 841.079 223.851C841.686 223.647 842.285 223.369 842.841 223.032C843.396 222.695 843.898 222.306 844.316 221.889C844.734 221.471 845.061 221.032 845.277 220.598Z" fill="#84A17D"/>
<path d="M827.173 253.511L828.578 254.986C830.937 253.908 831.214 252.038 833.378 250.756L832.477 249.392C831.946 249.461 831.601 249.448 831.273 249.522C828.401 250.201 829.29 252.388 827.173 253.511Z" fill="#84A17D"/>
<path d="M868.86 284.239C868.246 285.327 867.926 286.392 867.919 287.368C867.912 288.344 868.219 289.21 868.819 289.91C870.569 288.82 870.289 287.69 871.085 286.574L868.86 284.239Z" fill="#84A17D"/>
<path d="M827.151 253.492L825.375 251.628C824.781 252.075 824.275 252.569 823.89 253.08C823.504 253.591 823.247 254.108 823.134 254.598C823.021 255.087 823.055 255.54 823.234 255.927C823.413 256.314 823.733 256.628 824.173 256.848C824.617 256.408 825.081 255.989 825.506 255.528C825.93 255.068 826.615 254.184 827.151 253.492Z" fill="#84A17D"/>
<path d="M830.601 260.318L834.485 259.238L835.9 256.333C833.417 256.444 831.715 258.352 829.704 259.376L830.601 260.318Z" fill="#84A17D"/>
<path d="M866.769 327.48C868.686 326.286 868.246 325.058 869.295 323.72L867.855 322.626C865.938 323.82 866.177 324.976 865.422 326.066L866.769 327.48Z" fill="#84A17D"/>
<path d="M838.822 246.224L834.946 248.638L836.722 250.502L840.556 248.114L838.822 246.224Z" fill="#84A17D"/>
<path d="M868.86 284.239C870.777 283.045 870.357 281.838 871.406 280.5L869.965 279.406C868.048 280.6 868.287 281.756 867.533 282.846L868.86 284.239Z" fill="#84A17D"/>
<path d="M874.837 277.548C876.753 276.354 876.334 275.147 877.363 273.788L873.112 273.857C872.455 276.094 874.228 276.491 874.837 277.548Z" fill="#84A17D"/>
<path d="M823.453 291.63C821.632 292.993 821.339 294.22 821.154 295.837L824.938 293.676L823.453 291.63Z" fill="#84A17D"/>
<path d="M868.291 250.26C868.495 248.174 868.495 248.174 866.323 247.079C864.857 249.233 867.224 249.488 868.291 250.26Z" fill="#84A17D"/>
<path d="M862.953 206.881C864.584 207.758 864.244 209.7 867.069 209.181C867.942 207.658 866.556 207.248 865.867 206.665C865.555 206.338 864.279 206.741 862.953 206.881Z" fill="#84A17D"/>
<path d="M872.967 239.906C872.048 239.499 872.541 237.855 870.125 238.804C870.441 240.599 870.44 240.599 872.967 239.906Z" fill="#84A17D"/>
<path d="M866.805 240.545C866.615 240.012 866.313 239.532 865.907 239.114C865.79 238.992 864.903 239.315 864.386 239.539C863.869 239.763 863.956 240.133 864.054 240.236C864.151 240.338 865.043 240.925 865.577 241.278L866.805 240.545Z" fill="#84A17D"/>
<path d="M872.342 250.609C871.833 252.166 872.237 252.73 873.806 252.635C875.561 250.922 874.411 250.691 872.342 250.609Z" fill="#84A17D"/>
<path d="M881.994 265.616C883.467 263.817 883.467 263.817 881.444 263.087C879.692 264.733 881.803 264.789 881.994 265.616Z" fill="#84A17D"/>
<path d="M881.992 265.616C880.56 267.389 880.56 267.389 882.565 268.099C884.336 266.474 882.224 266.418 881.992 265.616Z" fill="#84A17D"/>
<path d="M881.549 274.835C882.98 273.062 882.98 273.063 880.976 272.353C879.244 274.019 881.316 274.034 881.549 274.835Z" fill="#84A17D"/>
<path d="M836.741 250.522C835.268 252.321 835.268 252.321 837.272 253.031C839.024 251.385 836.971 251.391 836.741 250.522Z" fill="#84A17D"/>
<path d="M830.172 243.419C828.003 243.791 826.88 244.424 826.243 245.637C828.011 246.168 828.987 245.103 830.172 243.419Z" fill="#84A17D"/>
<path d="M825.972 258.731L827.747 260.595L829.706 259.375C829.483 258.857 829.078 258.432 828.516 258.125C827.909 258.046 826.814 258.5 825.972 258.731Z" fill="#84A17D"/>
<path d="M828.164 283.474C825.995 283.845 824.873 284.479 824.236 285.692C826.003 286.223 826.98 285.158 828.164 283.474Z" fill="#84A17D"/>
<path d="M864.45 218.351C865.923 216.552 865.923 216.552 863.899 215.822C862.356 217.338 864.448 217.373 864.45 218.351Z" fill="#84A17D"/>
<path d="M866.701 225.663L867.638 224.557C867.541 224.454 866.846 224.561 866.74 224.659C866.34 225.019 865.984 225.394 865.68 225.777L866.701 225.663Z" fill="#84A17D"/>
<path d="M867.845 229.65C867.786 230.007 867.78 230.35 867.824 230.674C867.824 230.674 868.436 230.62 868.742 230.592C868.8 230.235 868.807 229.892 868.762 229.568C868.762 229.568 868.15 229.623 867.845 229.65Z" fill="#84A17D"/>
<path d="M880.131 247.912L879.132 247.979C879.084 248.333 879.078 248.675 879.112 249.003C879.112 249.003 879.724 248.949 880.03 248.921L880.131 247.912Z" fill="#84A17D"/>
<path d="M880.731 254.881L881.909 252.842C879.637 253.245 880.445 253.884 880.731 254.881Z" fill="#84A17D"/>
<path d="M880.64 254.09L879.463 256.129C881.734 255.726 880.926 255.087 880.64 254.09Z" fill="#84A17D"/>
<path d="M842.758 217.467L843.908 217.698C844.019 217.465 844.318 217.083 844.198 217.027C843.851 216.886 843.451 216.795 843.01 216.755L842.758 217.467Z" fill="#84A17D"/>
<path d="M874.403 257.648C873.882 257.774 873.356 257.948 872.838 258.166C872.838 258.166 872.596 258.61 872.486 258.842C873.012 258.71 873.543 258.543 874.07 258.344C874.07 258.344 874.292 257.88 874.403 257.648Z" fill="#84A17D"/>
<path d="M881.524 274.46L880.196 276.69C882.598 276.075 881.79 275.436 881.524 274.46Z" fill="#84A17D"/>
<path d="M874.733 268.865L873.795 269.971C874.004 269.841 874.546 269.993 874.693 269.869C875.093 269.509 875.449 269.134 875.754 268.751L874.733 268.865Z" fill="#84A17D"/>
<path d="M880.672 281.583L879.734 282.689C880.04 282.662 880.485 282.711 880.633 282.586C881.025 282.237 881.368 281.87 881.651 281.495L880.672 281.583Z" fill="#84A17D"/>
<path d="M874.79 277.151L873.612 279.191C875.676 278.917 874.973 278.18 874.79 277.151Z" fill="#84A17D"/>
<path d="M869.423 271.519L868.246 273.558C870.309 273.284 869.626 272.567 869.423 271.519Z" fill="#84A17D"/>
<path d="M867.953 276.384L869.227 276.536C869.338 276.304 869.637 275.922 869.559 275.84C869.182 275.736 868.777 275.661 868.349 275.615L867.953 276.384Z" fill="#84A17D"/>
<path d="M838.825 246.646L840.044 244.581C837.731 245.01 838.6 245.643 838.825 246.646Z" fill="#84A17D"/>
<path d="M833.239 242.455L832.862 243.244C833.383 243.113 833.908 242.939 834.427 242.726C834.427 242.726 834.71 242.257 834.821 242.024L833.239 242.455Z" fill="#84A17D"/>
<path d="M831.23 239.235L830.292 240.341C830.617 240.335 831.104 240.358 831.251 240.233C831.624 239.872 831.959 239.499 832.25 239.122L831.23 239.235Z" fill="#84A17D"/>
<path d="M874.123 293.526L873.144 293.613C873.086 293.97 873.079 294.313 873.124 294.638C873.124 294.638 873.716 294.562 874.042 294.556L874.123 293.526Z" fill="#84A17D"/>
<path d="M598.009 5.30618L597.632 6.09531C598.167 5.95462 598.706 5.77271 599.238 5.55198C599.238 5.55198 599.479 5.1081 599.59 4.87524L598.009 5.30618Z" fill="#84A17D"/>
<path d="M880.894 305.302L880.517 306.092C881.037 305.966 881.564 305.792 882.082 305.574C882.082 305.574 882.323 305.13 882.434 304.898L880.894 305.302Z" fill="#84A17D"/>
<path d="M826.483 249.86L827.661 247.821C825.389 248.224 826.197 248.863 826.483 249.86Z" fill="#84A17D"/>
<path d="M881.191 308.12L880.253 309.226C880.503 309.07 881.046 309.222 881.193 309.098C881.586 308.748 881.929 308.381 882.211 308.006L881.191 308.12Z" fill="#84A17D"/>
<path d="M826.437 249.465C825.103 250.296 824.71 250.998 825.376 251.627C826.77 250.791 827.103 250.095 826.437 249.465Z" fill="#84A17D"/>
<path d="M590.408 1.71704C589.888 1.84236 589.361 2.0162 588.843 2.2345C588.843 2.2345 588.602 2.67836 588.45 2.93628C588.991 2.78913 589.535 2.61449 590.076 2.41317C590.076 2.41317 590.297 1.94909 590.408 1.71704Z" fill="#84A17D"/>
<path d="M582.606 4.19363L585.212 4.07234C585.723 2.44807 584.301 3.46437 582.606 4.19363Z" fill="#84A17D"/>
<path d="M581.396 0.834223L581 1.60312C581.528 1.45758 582.057 1.29185 582.585 1.10589C582.585 1.10589 582.848 0.615103 582.959 0.383057L581.396 0.834223Z" fill="#84A17D"/>
<path d="M874.215 309.787L873.195 309.901C873.136 310.257 873.13 310.6 873.175 310.925C873.175 310.925 873.767 310.85 874.092 310.843L874.215 309.787Z" fill="#84A17D"/>
<path d="M833.11 265.805L831.871 267.85C834.185 267.421 833.276 266.746 833.11 265.805Z" fill="#84A17D"/>
<path d="M827.745 260.596C826.829 261.167 825.954 261.712 826.789 262.17C826.945 262.334 828.004 261.773 828.643 261.538L827.745 260.596Z" fill="#84A17D"/>
<path d="M584.884 9.30176L586.123 7.25781C583.938 7.5416 584.66 8.3 584.884 9.30176Z" fill="#84A17D"/>
<path d="M583.884 3.72314L581.3 3.79833C580.747 5.44854 582.189 4.45244 583.884 3.72314Z" fill="#84A17D"/>
<path d="M875.826 314.757L874.805 314.871C874.743 315.216 874.744 315.544 874.807 315.849C874.807 315.849 875.377 315.82 875.683 315.793L875.826 314.757Z" fill="#84A17D"/>
<path d="M878.228 339.925L879.448 337.86C877.193 338.351 878.042 338.964 878.228 339.925Z" fill="#84A17D"/>
<path d="M878.237 339.169L877.018 341.234C879.331 340.805 878.523 340.166 878.237 339.169Z" fill="#84A17D"/>
<path d="M816.578 278.419L817.756 276.379C815.484 276.782 816.233 277.36 816.578 278.419Z" fill="#84A17D"/>
<path d="M878.179 343.219L877.181 343.286C877.123 343.643 877.116 343.986 877.161 344.31C877.161 344.31 877.773 344.256 878.079 344.229L878.179 343.219Z" fill="#84A17D"/>
<path d="M824.435 289.941L825.654 287.876C823.341 288.305 824.191 288.918 824.435 289.941Z" fill="#84A17D"/>
<path d="M815.511 280.16C816.845 279.329 817.197 278.653 816.531 278.024C815.178 278.834 814.803 279.556 815.511 280.16Z" fill="#84A17D"/>
<path d="M872.008 339.948L870.734 339.795C870.832 339.897 870.324 340.409 870.443 340.465C870.791 340.593 871.184 340.677 871.612 340.717L872.008 339.948Z" fill="#84A17D"/>
<path d="M824.43 289.52C823.055 290.376 822.703 291.052 823.369 291.682C824.722 290.872 825.096 290.15 824.43 289.52Z" fill="#84A17D"/>
<path d="M816.044 287.269C816.492 287.74 816.883 288.15 818.057 287.223C818.391 287.015 818.047 286.446 818.002 286.05L816.044 287.269Z" fill="#84A17D"/>
<path d="M869.709 347.711L872.293 347.636C872.846 345.986 871.404 346.981 869.709 347.711Z" fill="#84A17D"/>
<path d="M816.846 291.665L818.043 289.646C815.73 290.075 816.58 290.689 816.846 291.665Z" fill="#84A17D"/>
<path d="M870.349 347.475C869.745 346.84 868.849 346.876 867.513 347.773C868.076 348.434 868.869 348.43 870.349 347.475Z" fill="#84A17D"/>
<path d="M866.349 343.276C865.824 343.395 865.291 343.562 864.764 343.774C864.764 343.774 864.481 344.243 864.39 344.496C864.926 344.342 865.463 344.16 865.997 343.952C865.997 343.952 866.238 343.509 866.349 343.276Z" fill="#84A17D"/>
<path d="M816.775 290.894L815.597 292.933C817.946 292.611 817.041 291.87 816.775 290.894Z" fill="#84A17D"/>
<path d="M819.097 299.043L818.742 299.786C819.262 299.661 819.789 299.486 820.307 299.268C820.307 299.268 820.548 298.824 820.659 298.592L819.097 299.043Z" fill="#84A17D"/>
<path d="M814.15 296.151L813.212 297.257C813.518 297.23 814.005 297.253 814.111 297.154C814.51 296.795 814.866 296.42 815.171 296.037L814.15 296.151Z" fill="#84A17D"/>
<path d="M871.912 391.28C873.245 390.449 873.597 389.773 872.931 389.144C871.578 389.954 871.204 390.676 871.912 391.28Z" fill="#84A17D"/>
<path d="M871.867 390.883L870.648 392.948C872.961 392.519 872.153 391.88 871.867 390.883Z" fill="#84A17D"/>
<path d="M872.679 396.546L873.075 395.777C872.555 395.903 872.028 396.077 871.51 396.296C871.51 396.296 871.269 396.739 871.117 396.997L872.679 396.546Z" fill="#84A17D"/>
<path d="M857.286 401.922C856.328 402.519 855.495 403.038 856.33 403.497C856.486 403.661 857.545 403.099 858.184 402.865L857.286 401.922Z" fill="#84A17D"/>
<path d="M871.899 434.401L874.525 434.3C875.036 432.676 873.594 433.671 871.899 434.401Z" fill="#84A17D"/>
<path d="M265.484 569.844C266.404 569.747 267.338 569.135 268.313 570.19C268.172 570.719 268.172 571.32 267.934 571.645C266.139 573.72 264.42 575.874 262.67 578.03C260.473 580.252 258.128 582.232 255.656 583.955L253.799 588.052L246.877 593.752C246.658 593.84 246.42 593.865 246.18 593.826L244.769 593.674C244.244 592.614 243.751 591.551 243.219 590.449C241.757 592.188 239.349 592.656 238.905 595.918L241.621 596.963C241.505 597.446 241.511 598.089 241.266 598.372C240.07 599.569 238.944 600.876 237.896 602.285C237.092 603.634 236.056 604.707 234.854 605.434C233.439 606.222 232.277 607.547 231.501 609.26C230.678 611.361 228.567 611.069 227.945 613.021C227.323 614.973 226.237 613.629 225.39 613.975C225.38 613.098 225.237 612.21 224.97 611.36C224.685 610.79 223.94 610.568 223.5 610.442C223.082 609.242 223.06 607.701 221.875 609.155C222.391 609.645 222.935 610.076 223.5 610.442C223.646 611.67 223.842 612.894 224.089 614.111C222.907 613.979 222.872 615.569 222.251 616.32C221.63 617.071 221.588 618.619 220.374 618.489C219.917 617.251 220.584 615.38 218.947 614.823C218.701 617.507 218.701 617.507 220.374 618.489C220.736 619.738 220.271 620.258 219.55 620.591L218.279 621.111L216.273 624.881L211.769 625.353C211.219 626.641 210.597 627.866 209.907 629.022C209.214 629.668 208.474 630.233 207.696 630.712C204.192 633.996 200.332 636.673 197.125 640.397C195.976 641.677 194.126 640.198 193.371 642.121C192.615 644.045 190.389 643.635 189.898 646.002C189.407 648.369 187.648 647.653 186.818 649.112C185.988 650.572 184.042 650.905 183.384 653.032C182.726 655.159 180.422 654.673 179.853 656.747C175.841 656.869 174.146 661.378 169.624 663.738L165.184 664.204L163.891 666.398L153.648 667.473L151.737 665.615L148.883 665.915C148.448 665.556 148.115 665.007 147.954 664.384C147.794 663.76 147.819 663.112 148.024 662.574C151.771 647.943 152.254 646.735 155.93 640.303C155.799 639.688 155.7 639.068 155.632 638.447C155.585 638.152 155.875 637.95 156.149 637.45L158.781 637.173C159.003 637.151 159.146 636.835 159.316 636.689C159.419 635.52 159.553 634.348 159.631 633.225L161.121 633.068L166.198 624.517C169.145 623.993 168.784 618.928 171.6 617.989C171.825 617.923 172.059 617.898 172.298 617.916L174.792 613.366L178.028 607.409C180.384 607.418 180.78 604.461 181.855 602.718C182.929 600.976 183.656 598.67 185.713 598.026C186.474 597.946 186.715 596.034 187.354 595.194C189.077 592.869 189.619 589.211 192.202 587.825C194.785 586.438 194.432 581.63 197.42 581.359L204.031 568.701L205.712 568.525C207.349 565.267 209.705 562.78 212.523 561.335L216.548 553.065L217.753 552.939C219.708 550.246 220.494 546.304 222.857 544.555C225.221 542.806 225.898 539.39 227.621 537.065C227.777 536.835 227.83 536.358 228.02 536.337C230.177 536.111 230.48 532.777 231.951 531.894C233.121 531.058 234.131 529.919 234.927 528.537C236.774 525.984 237.447 522.14 240.257 520.558C242.505 519.294 242.487 514.364 245.462 514.009L250.927 503.658C254.384 503.295 254.032 497.886 256.986 496.804C259.365 495.955 259.051 490.584 262.243 490.378C263.651 487.3 265.37 484.513 267.36 482.079C269.328 479.604 271.043 476.806 272.471 473.738C274.09 471.167 275.432 468.281 276.929 465.551L281.728 456.471L283.504 456.285C283.545 455.337 283.295 453.776 283.739 453.129C285.793 450.255 285.563 445.605 287.809 442.925L283.187 440.451L279.445 440.843L277.503 438.989L267.355 440.053L266.459 441.906L257.706 442.824L256.558 444.917L252.531 445.34L250.89 447.57L245.466 448.139L243.952 450.357L239.893 450.782L238.473 452.99L234.414 453.416L233.122 455.61L230.299 455.906L229.007 458.1L226.184 458.396L224.871 460.463C223.571 460.6 222.018 460.163 221.224 460.847C219.862 462.278 218.206 463.203 216.4 463.54C214.912 466.526 211.714 466.69 210.317 469.838L207.399 470.145L206.358 472.098L203.228 472.683C202.703 474.84 201.217 474.824 199.269 474.943C198.718 476.427 197.972 477.751 197.06 478.863C196.186 479.641 194.955 479.813 194.501 481.404L190.22 481.853C188.338 484.795 185.37 485.793 183.5 488.604C180.877 487.937 179.761 491.827 176.687 491.163L175.62 495.564L171.656 495.98C170.988 499.052 168.629 500.028 167.036 501.954C166.446 502.702 165.309 502.649 163.993 503.087C161.749 506.697 158.933 509.612 155.697 511.677C153.774 513.083 152.076 514.912 150.665 517.094C149.615 518.422 148.419 519.541 147.105 520.426L142.878 521.213L142.828 524.52C142.214 524.698 141.616 524.933 141.038 525.223C140.66 525.477 140.528 526.262 140.163 526.6C139.507 527.09 138.822 527.52 138.112 527.888L136.305 531.294C135.142 532.488 132.74 530.982 132.222 533.781C129.752 535.12 127.641 537.251 126.061 540.002C125.191 541.247 124.123 542.233 122.915 542.905C120.79 544.329 118.859 546.161 116.933 547.821C114.639 549.197 112.766 551.426 111.517 554.264C109.357 555.075 107.525 556.763 106.264 559.103C104.935 561.473 102.448 562.248 101.569 565.214C99.4065 564.197 99.6686 568.844 97.4993 567.785L94.2451 573.83C91.6632 573.415 90.2345 575.966 88.3559 577.322C86.3306 578.403 84.5534 580.049 83.1342 582.157C81.8392 584.738 79.4718 585.458 78.247 588.074C77.0222 590.689 74.4103 591.092 73.7809 594.202L69.3409 594.669L63.7125 605.208L60.5411 605.541L60.2129 608.921L55.2679 612.869L55.6064 614.979C53.648 616.133 51.9118 617.768 50.4798 619.805C49.3366 622.326 46.7906 622.336 46.0301 625.032C45.8644 625.607 45.5807 626.451 45.2318 626.488C42.7899 626.743 42.6833 630.7 40.7078 631.251C38.7322 631.801 38.9388 634.695 36.4691 635.984L36.0885 636.023C35.1044 638.09 34.0217 640.065 32.8458 641.939C31.6691 643.649 31.4613 646.372 29.0917 646.879C27.6329 647.031 27.771 650.704 25.8319 651.08C23.8927 651.455 24.1577 655.115 21.9103 655.779C20.3267 656.16 19.0977 658.347 17.4953 660.017L15.0216 660.276L13.7291 662.47L10.9383 662.763L9.66401 664.869C7.95401 664.663 6.3879 666.157 4.6765 664.535C4.7407 663.328 6.0253 662.893 5.3377 661.42C6.21 661.029 7.3673 661.208 6.0863 659.455C5.7985 660.08 5.5483 660.736 5.3377 661.42C4.6754 661.444 4.0191 661.513 3.3714 661.627L0.747803 658.943L2.2854 655.866L3.9245 657.238C5.4164 655.716 7.0096 654.359 8.6905 653.178C9.6694 652.647 9.8672 651.468 10.5585 650.752C11.2498 650.037 9.9222 646.788 12.269 646.542C13.157 646.448 13.7856 644.539 14.5044 643.391C15.2231 642.244 17.0262 642.226 17.5846 640.281C18.1415 638.716 18.7841 637.215 19.5081 635.791L23.0284 635.421L23.1889 632.402C23.995 630.394 25.0426 628.593 26.2976 627.059L30.1584 629.013C31.6226 627.486 30.5771 625.795 30.5398 623.955C30.7756 623.416 30.9689 622.409 31.472 621.928C33.204 620.591 34.6448 618.744 35.6975 616.51C37.8857 616.28 38.4492 613.562 39.5874 611.813C39.9818 611.257 40.9422 611.414 41.3683 610.855C42.8236 609.073 43.2897 606.15 45.431 605.025C47.5722 603.9 47.5863 599.567 49.9968 598.714C52.4074 597.86 51.9027 593.711 54.5527 593.948C55.5119 592.566 56.3477 591.041 57.0471 589.397C57.644 587.491 59.5101 588.067 60.1975 586.322C60.8849 584.578 61.3503 582.857 63.2075 583.176C63.5803 581.079 65.3921 581.317 66.2809 580.024C67.0183 578.581 67.97 577.363 69.0896 576.427C71.2815 575.169 73.2327 573.383 74.853 571.148C76.2838 568.81 78.5607 567.928 79.747 565.274C80.4509 563.464 81.6681 562.134 83.1764 561.526C84.8573 561.349 85.0106 558.889 86.5146 558.817C88.0187 558.745 87.9792 556.691 88.8337 555.787C89.3517 555.272 89.9032 554.813 90.4836 554.412C91.6189 553.651 92.184 551.747 93.7583 551.71C94.8511 549.521 96.2854 547.682 97.9838 546.293C98.9698 545.203 99.4238 543.612 101.005 543.016C102.587 542.422 102.412 539.524 104.297 538.812C105.454 538.39 105.835 535.734 106.906 534.979C107.978 534.223 109.036 533.984 109.37 532.448L112.541 532.115C113.562 530.259 114.833 528.677 116.304 527.432C117.943 526.187 119.534 524.649 121.204 523.401C122.874 522.154 122.779 518.947 125.166 518.954C126.241 516.611 128.344 516.048 129.871 514.516C131.399 512.983 133.042 511.567 134.563 509.992C136.334 508.877 137.922 507.38 139.268 505.553C141.202 505.95 141.355 503.49 142.31 502.403C143.124 501.487 144.008 500.676 144.952 499.982C146.652 498.75 148.257 497.335 149.755 495.748C151.119 494.404 152.174 492.535 153.645 491.051C159.31 486.168 164.922 480.948 170.816 476.084C171.968 474.764 173.383 473.866 174.943 473.464C176.084 473.345 177.001 471.619 178.161 470.811C179.321 470.003 180.356 467.407 181.713 467.222C183.528 466.885 185.185 465.929 186.523 464.445C187.928 463.099 189.542 462.131 191.288 461.586C192.834 460.556 194.215 459.196 195.382 457.554C196.874 456.42 198.297 455.154 199.642 453.763C200.959 452.123 203.817 454.054 204.233 450.621C206.817 451.851 207.703 448.328 209.794 447.894C211.83 447.45 213.564 445.998 214.655 443.825C217.434 444.263 218.707 440.141 221.622 440.821L222.896 438.715L225.719 438.419L227.011 436.224L229.834 435.928L230.843 433.978L236.646 433.369L237.277 432.274C237.395 432.005 237.517 431.562 237.676 431.546C239.832 431.32 241.229 429.372 243.107 428.618C244.089 428.386 245.097 428.28 246.12 428.302L247.433 426.234L251.619 425.795L252.911 423.601L257.193 423.152L258.485 420.958L265.652 420.206L266.618 418.389L278.574 417.135L279.966 418.575L281.263 416.81L283.031 418.382L287.408 417.923L289.35 419.778L292.204 419.478L298.434 425.943L300.525 438.975C299.576 443.106 298.704 446.713 297.941 450.396C297.71 452.421 297.395 454.416 296.997 456.37C296.297 458.014 295.462 459.539 294.502 460.92C293.9 461.844 293.383 462.862 292.958 463.955C292.722 465.037 292.601 466.175 292.598 467.338L290.981 467.507C289.686 469.487 289.222 472.623 286.583 472.257L287.037 475.083C284.4 479.948 281.558 484.749 279.07 489.942C277.721 492.784 275.088 493.662 273.899 496.703C272.662 499.668 271.181 502.424 269.48 504.928C268.523 506.401 266.851 506.833 266.007 508.808C265.494 510.449 264.58 511.773 263.391 512.599C262.058 513.34 261.294 515.607 260.325 517.21C259.394 518.622 258.56 520.144 257.831 521.76C257.144 523.504 255.239 522.889 254.719 524.873C253.904 527.832 250.742 527.821 250.094 531.019C249.447 534.217 246.77 533.812 245.76 536.363C244.588 539.011 243.254 541.516 241.771 543.857C241.11 544.509 240.366 545.021 239.564 545.375L235.532 553.002C232.644 553.692 232.245 557.636 230.368 559.805C229.299 559.575 228.814 560.569 228.188 561.493C227.505 562.143 226.738 562.643 225.911 562.975L226.249 565.083C225.441 566.884 223.473 566.876 222.783 569.006C222.292 570.403 221.623 571.66 220.801 572.731C220.563 573.056 219.562 572.647 219.406 572.877C217.875 576.597 214.702 578.131 212.888 581.494C211.176 581.675 210.905 583.804 210.086 585.133C209.268 586.463 207.742 585.593 207.24 587.49C206.738 589.387 204.858 589.928 203.806 591.41L204.056 592.97C202.913 595.515 201.363 597.674 199.497 599.324C197.657 600.717 197.385 604.648 194.789 605.35C194.408 605.39 194.272 606.348 193.952 606.767C191.708 609.661 191.256 614.683 187.727 615.997L182.583 625.542L177.91 629.378C177.622 630.995 177.229 632.965 177.044 634.829C176.178 635.263 175.014 635.041 176.302 636.836C176.578 636.189 176.826 635.519 177.044 634.829C177.995 634.729 179.137 634.609 180.596 634.456L181.98 630.623C183.708 630.141 184.798 629.898 185.822 629.448C186.044 629.424 185.984 628.444 186.054 627.879L189.416 627.527C194.348 621.692 200.944 618.984 205 611.912L207.728 611.626L208.995 609.477L212.325 609.128L214.106 604.353L217.677 606.508C219.851 606.613 221.97 606.202 223.932 605.294L221.96 603.056C222.672 601.266 224.208 602.392 225.549 601.308L226.549 599.702L229.72 599.369L229.709 596.283C227.911 594.928 226.588 595.924 225.183 595.814C225.129 595.477 225.041 594.928 225.034 594.886C227.111 592.953 229.218 591.017 231.346 589.207C231.632 589.177 232.225 589.457 232.728 589.576C232.792 591.585 231.48 592.452 230.963 594.05C232.301 595.153 233.003 594.907 234.633 592.807L237.329 592.524C237.669 591.031 239.124 590.449 238.742 588.473L241.555 585.906L245.815 589.747C248.768 588.409 251.088 585.614 252.328 581.902C249.914 579.776 247.212 578.395 244.459 577.882C244.335 577.078 244.41 576.278 244.674 575.601C244.937 574.924 245.374 574.406 245.92 574.126C247.971 573.44 248.658 571.094 249.715 569.44L252.569 569.14L253.787 567.083C255.682 568.642 257.014 571.719 260.104 570.279C259.568 573.166 259.259 574.657 258.966 576.446C258.075 576.925 256.565 575.754 256.365 577.919C258.434 578.559 258.434 578.559 258.966 576.446L261.217 576.209C262.534 574.57 263.078 571.726 265.298 571.493C265.467 571.347 265.439 570.364 265.484 569.844ZM192.696 638.718C193.332 638.265 194.885 640.504 195.004 637.833C194.112 636.897 193.32 636.981 192.822 638.705L192.696 638.718ZM252.797 574.176C253.004 574.483 253.259 574.725 253.541 574.882C253.823 575.04 254.121 575.106 254.409 575.076C254.696 575.046 254.964 574.92 255.186 574.71C255.409 574.5 255.58 574.212 255.683 573.874C255.481 573.594 255.236 573.374 254.969 573.233C254.702 573.091 254.421 573.032 254.15 573.061C253.879 573.089 253.626 573.204 253.412 573.396C253.199 573.588 253.031 573.851 252.924 574.164L252.797 574.176ZM249.798 577.193L250.191 576.423C249.853 576.206 249.502 576.042 249.145 575.933C249.145 575.933 248.888 576.345 248.764 576.573L249.798 577.193ZM216.337 612.223L216.984 612.841C217.112 612.415 217.191 611.959 217.219 611.488C217.219 611.488 216.865 611.095 216.673 610.901L216.337 612.223ZM211.006 613.768L210.614 614.539C210.961 614.764 211.323 614.927 211.692 615.026C211.692 615.026 211.948 614.613 212.073 614.386L211.006 613.768ZM10.1635 659.542C10.1228 659.289 9.7063 658.904 9.5862 658.959C9.2684 659.137 8.98141 659.385 8.73631 659.692C8.92871 659.886 9.1868 660.288 9.3069 660.233C9.6179 660.053 9.90551 659.821 10.1635 659.542Z" fill="#416262"/>
<path d="M761.695 491.795L761.446 493.665L757.229 494.108L755.778 496.319L744.392 497.513L743.036 499.714L738.819 500.156C738.119 502.631 735.614 502.294 734.856 504.603C733.045 504.364 731.854 505.99 730.606 506.85C728.889 507.527 727.055 507.792 725.185 507.633L724.013 509.772L719.668 510.228L718.595 512.184L712.95 512.776L711.594 514.977L703 515.879L701.739 518.069L684.297 519.9L683.337 521.759L676.075 522.52L674.853 524.75L667.622 525.508L666.432 527.735L659.233 528.49L658.042 530.716L650.685 531.488L649.644 533.442L645.394 533.887L644.102 536.081L641.184 536.388L640.538 537.785C639.085 539.18 637.237 538.517 635.68 539.066L634.689 540.928L628.886 541.537L627.67 543.809C626.529 543.929 624.638 543.398 623.801 544.215C622.354 545.469 620.747 546.418 619.029 547.031C617.656 548.164 616.376 549.46 615.201 550.906L609.81 551.472L608.517 553.666L605.917 553.939L604.643 556.045C603.184 556.199 601.363 555.703 600.899 558.239L595.603 558.795L590.825 563.584L587.051 563.981L585.727 566.178L581.478 566.624L580.217 568.815L577.331 569.117L576.315 571.025L571.771 571.845L570.73 573.798C569.416 573.767 568.121 573.903 566.861 574.204C565.608 574.635 565.088 576.62 563.412 576.624C562.46 576.724 561.689 578.349 560.518 578.686C559.347 579.023 557.632 578.989 557.062 581.064L554.208 581.364L552.916 583.558L550.093 583.854L548.801 586.048L544.71 586.477C544.159 587.264 543.746 588.508 543.256 588.474C541.408 588.41 540.275 589.987 539.033 590.889C537.791 591.791 536.511 591.454 535.434 592.982C534.358 594.51 532.736 593.651 531.171 593.944L529.94 595.917L524.263 596.513L523.002 598.704L512.854 599.769L510.132 594.865L510.958 592.977L509.812 592.068C508.021 591.355 507.827 596.779 505.317 593.397L506.265 591.668L505.162 584.794L506.384 578.748L508.199 578L508.412 575.105L511.573 568.683C510.581 565.314 514.135 564.555 513.34 561.207C513.317 561.049 513.318 560.889 513.344 560.739C513.37 560.589 513.42 560.451 513.49 560.334C514.681 558.108 515.985 555.785 517.055 553.614C518.126 551.443 517.276 547.759 519.542 547.006C519.763 544.367 518.449 541.803 520.173 540.293C518.365 538.467 517.925 535.125 515.905 533.793L509.68 532.174L506.94 529.974L505.056 532.702L492.117 534.059L491.101 535.967L485.298 536.576L484.082 538.848C483.047 539.081 481.986 539.193 480.911 539.18C479.405 539.038 479.344 541.274 478.058 541.495C476.771 541.716 475.647 541.748 474.316 541.888L473.003 543.955L468.817 544.394L467.524 546.589L464.702 546.885L463.822 548.435C462.507 549.688 460.691 549.021 459.096 549.531L458.311 551.072C457.169 552.392 455.489 551.368 453.801 552.703C452.956 555.279 450.047 553.826 448.001 554.941C447.534 558.463 443.411 555.079 443.336 559.033L438.833 559.505L437.509 561.702L434.718 561.995L433.426 564.189L428.034 564.754C426.839 566.189 425.549 567.486 424.175 568.634C422.622 569.611 420.749 569.593 419.441 571.488C418.802 572.328 417.094 571.735 415.731 571.878L414.411 573.903L410.256 574.339L408.932 576.536L404.683 576.982L403.422 579.173L400.409 579.489L399.117 581.683L396.389 581.969L394.97 584.176C391.555 582.991 389.711 587.173 386.633 587.281C385.677 590.169 383.309 588.874 381.467 589.453L380.186 591.517L377.427 591.806L376.134 594.001L373.28 594.3L372.289 596.162L368.008 596.611L366.817 598.838L361.014 599.447L359.83 601.715L354.026 602.323L352.953 604.28L348.577 604.739L346.771 603.128L343.948 603.424L335.928 595.045C336.614 592.486 331.907 591.694 334.016 588.556C334.958 588.8 335.478 590.633 336.597 590.172C337.771 592.065 337.771 592.065 339.539 591.021C338.661 588.969 337.571 590.413 336.597 590.172L337.501 586.561L336.905 582.85L339.083 581.55C339.365 579.89 339.749 577.663 340.101 575.439C340.101 575.439 340.013 574.891 339.696 574.323L337.495 573.868L336.16 571.178L338.858 567.893C340.523 568.018 342.523 570.639 344.676 569.384L346.151 572.746C346.151 572.746 346.597 572.913 346.658 572.692L354.944 557.414C354.944 557.414 354.843 556.782 354.795 556.487C355.3 556.575 355.8 556.531 356.264 556.354C356.729 556.177 357.147 555.872 357.495 555.458C357.842 555.044 358.111 554.529 358.285 553.946C358.458 553.362 358.533 552.723 358.504 552.066L361.39 551.763C361.44 554.288 359.954 555.473 359.044 557.242C358.135 559.009 357.891 560.707 356.034 560.388L352.438 567.112L346.988 577.16L344.777 588.5L349.329 590.938L352.119 590.645L353.135 588.737L358.939 588.128L360.061 586.081L365.326 585.528L370.04 580.746L373.846 580.346L375.145 578.194L377.004 579.929C379.853 578.683 382.154 576.124 383.516 572.685L386.45 574.693L387.606 572.856L391.856 572.41L393.099 570.307L394.561 571.784L401.974 565.13L407.239 564.578C407.264 563.331 407.281 562.43 407.329 561.524C408.549 559.681 410.5 561.191 412.433 559.573L412.937 558.491C414.722 557.361 417.06 558.058 419.205 557.361L420.393 555.522L421.74 556.881C423.145 556.391 423.167 554.116 425.086 553.014L429.97 552.501L431.294 550.304L438.524 549.545L441.695 543.381L448.799 542.635L450.377 540.412L454.737 539.653L455.728 537.791L462.325 537.099L467.8 532.237C469.002 530.721 470.654 529.92 472.438 529.992C473.643 529.866 474.849 529.739 476.054 529.612L480.457 525.505L482.019 526.8C483.133 527.05 484.231 526.814 485.137 526.129C485.153 525.227 485.201 524.322 485.218 523.419C485.589 523.123 485.927 522.616 486.308 522.576C490.906 522.093 495.504 521.611 500.071 521.132L501.346 519.025C502.676 518.071 503.508 520.042 504.541 520.448L505.774 518.689L507.436 520.402L517.616 519.334L519.239 521.007L523.425 520.568C525.131 522.962 527.975 521.592 529.234 525.019C530.008 526.825 529.755 529.467 531.881 530.659L534.115 544.576C532.265 546.315 532.44 549.812 531.29 552.292C530.14 554.771 528.641 557.287 527.301 559.786C525.961 562.285 524.498 564.626 523.344 567.277C522.189 569.928 521.256 573.156 520.046 576.671C520.25 577.936 520.724 579.088 522.492 578.645L523.811 576.619L529.424 576.031L530.749 573.833L533.539 573.54L534.832 571.346L537.718 571.044L538.999 568.98C543.253 567.215 547.279 564.808 551.004 561.802L554.841 561.399C556.188 560.223 557.466 558.928 558.669 557.524C559.803 555.947 561.881 557.445 562.931 555.147C563.981 552.85 566.282 554.324 567.574 552.129C568.393 550.8 570.888 552.682 572.054 550.502C573.219 548.321 575.137 549.621 576.655 549.033C577.128 548.209 577.754 547.564 578.486 547.145C579.218 546.726 580.036 546.546 580.878 546.617L582.184 544.508L585.007 544.211L586.3 542.017L590.581 541.568L591.422 539.979C592.866 539.201 594.479 538.914 596.125 539.142L598.187 540.941L598.167 537.599L599.77 534.729L603.956 534.29L605.28 532.092L608.071 531.799L609.364 529.605L613.645 529.156L614.668 527.291L617.778 526.579L618.973 524.781C620.654 524.605 622.561 524.833 623.286 523.727C623.705 523.032 624.258 522.498 624.9 522.17C625.543 521.842 626.256 521.729 626.982 521.839C628.73 522.084 629.139 519.812 630.413 519.506C631.686 519.201 633.299 519.204 633.868 517.128L638.181 516.675L639.442 514.485L642.328 514.182L643.312 512.278L649.116 511.669L650.338 509.439L656.11 508.834L657.332 506.605L664.563 505.845L665.629 503.847L675.65 502.796L677.006 500.595L681.129 500.162L682.396 498.014L692.513 496.953L693.336 495.451C693.493 495.22 693.629 494.863 693.787 494.846L709.644 493.183L710.635 491.321L718.151 490.531L720.354 492.402L723.119 489.539L725.811 491.443L728.475 491.164L729.661 489.109L741.205 487.898L742.44 485.753C743.668 485.967 744.767 484.781 746.071 486.273L745.021 488.57L749.512 492.645L750.771 486.423L748.895 484.176C749.102 482.653 750.044 482.898 750.941 483.06C752.242 484.339 751.759 486.148 752.256 487.639L754.06 489.637L751.416 491.844C753.356 493.485 754.904 492.079 756.677 492.279L757.79 486.759L754.885 485.734C755.904 484.552 757.228 483.873 758.669 483.793L758.716 480.872C759.281 479.57 760.219 479.385 761.445 480.8L760.429 482.708L760.855 486.566L759.886 489.369C760.23 490.705 760.453 492.097 761.695 491.795ZM343.047 577.917C344.114 577.333 345.251 577.386 343.99 575.76C343.717 576.32 343.524 576.949 343.418 577.621C343.209 577.594 343.005 577.634 342.824 577.738C342.643 577.843 342.491 578.007 342.381 578.218C342.271 578.43 342.207 578.68 342.195 578.949C342.182 579.216 342.221 579.493 342.309 579.753C341.528 581.636 340.865 583.613 340.324 585.665C340.619 586.425 340.953 587.164 341.323 587.875L343.101 584.687L342.309 579.753C343.299 579.692 343.667 578.967 343.047 577.917Z" fill="#416262"/>
<path d="M391.468 472.747L393.656 472.517C395.082 473.568 394.669 475.413 395.155 477.034L394.193 479.279L397.77 485.294C396.818 487.195 394.66 486.006 393.294 486.535C391.203 489.004 389.924 492.453 389.67 496.307L390.985 497.67L389.978 499.834L391.699 501.712L392.328 505.634C391.12 507.348 390.554 509.851 388.728 511.33L386.251 509.359L385.026 511.374L383.409 511.544L382.471 509.113L383.652 506.63L379.882 504.838L390.454 485.118C390.42 484.907 390.325 484.316 390.034 483.704C387.976 481.732 387.659 484.382 386.737 485.465L382.487 485.911L381.571 487.636C379.915 488.443 378.028 488.475 376.2 487.728C377.024 485.409 378.464 483.625 380.29 482.668L375.497 482.142L374.833 479.209L376.723 478.325L378.71 480.26L380.835 480.038L381.659 481.753L389.397 480.94L389.73 477.389L391.944 478.529C392.489 476.499 391.614 474.661 391.468 472.747ZM384.857 502.687L385.473 503.308C385.597 502.874 385.686 502.42 385.739 501.951C385.739 501.951 385.354 501.563 385.162 501.369L384.857 502.687Z" fill="#416262"/>
<path d="M277.418 556.585L276.207 558.685L273.289 558.991L270.251 553.521C269.891 549.27 273.073 549.408 274.366 547.214C274.921 546.255 276.536 546.471 277.759 546.858C278.131 549.177 276.757 548.249 276.184 548.696C275.611 549.142 275.939 549.578 275.7 550.504C278.248 550.709 280.552 549.996 282.858 550.097C283.023 553.939 279.542 553.146 279.466 556.284C279.45 556.587 278.116 556.512 277.418 556.585Z" fill="#416262"/>
<path d="M239.017 588.574C237.62 588.507 236.34 589.371 234.902 588.449C234.868 588.238 234.624 587.921 234.793 587.775L237.22 582.802L240.392 582.47L242.451 578.223L244.671 577.99C245.26 580.618 245.527 583.299 245.461 585.927L243.265 584.099C242.043 585.127 239.725 583.14 238.519 585.669L239.017 588.574Z" fill="#416262"/>
<path d="M309.457 523.548L305.5 523.405L304.782 520.736L308.419 517.481C309.391 517.128 310.455 517.151 311.493 517.545L310.906 520.523L313.608 521.483L313.953 523.633L310.4 527.008L309.457 523.548Z" fill="#416262"/>
<path d="M343.679 505.718C343.609 506.283 343.588 507.358 343.429 507.374C341.239 507.39 340.935 511.924 337.847 509.762L335.932 514.508L330.445 515.083C330.516 514.519 330.444 513.668 330.702 513.469C332.094 512.295 333.589 511.366 335.051 510.226C335.337 510.196 335.231 509.135 335.301 508.57L338.885 508.194L340.096 506.094L343.679 505.718Z" fill="#416262"/>
<path d="M335.303 508.572L331.561 508.965L330.174 506.151L333.873 501.475L334.696 503.789L337.663 505.194C337.582 507.304 334.516 505.481 335.303 508.572Z" fill="#416262"/>
<path d="M372.736 530.632L375.653 530.326C375.193 533.891 372.952 535.798 371.927 538.651C370.282 539.252 369.392 538.53 369.23 536.317C370.609 534.458 372.89 534.003 372.736 530.632Z" fill="#416262"/>
<path d="M305.48 534.728C307.674 532.454 310.076 530.521 312.648 528.959C312.806 528.942 313.057 529.302 313.275 529.451C313.497 532.643 311.243 532.665 310.019 534.08C308.795 535.495 307.692 536.254 306.345 537.511L305.48 534.728Z" fill="#416262"/>
<path d="M361.16 531.845C360.788 529.527 362.652 529.288 362.549 527.841C364.724 526.926 366.275 530.966 368.073 529.105L368.391 531.087L366.392 533.098L364.712 531.473L361.16 531.845Z" fill="#416262"/>
<path d="M368.677 491.089L367.274 493.595L366.231 490.316C367.691 488.361 369.641 489.658 371.658 488.16C371.977 487.741 372.4 485.552 374.338 486.978C374.432 488.77 373.385 489.48 372.927 490.643L368.677 491.089Z" fill="#416262"/>
<path d="M375.285 472.384C378.139 472.085 380.264 471.862 382.912 471.884L381.088 475.592L378.718 474.083C376.935 473.626 377.15 477.377 375.223 476.422C374.995 476.262 374.773 476.085 374.558 475.891C374.079 474.312 375.614 474.236 375.285 472.384Z" fill="#416262"/>
<path d="M355.967 490.452C353.444 490.202 356.073 494.128 354.114 494.378C353.276 493.779 353.497 492.341 353.117 491.18C352.619 489.959 352.042 488.785 351.393 487.673L352.607 485.187C353.97 485.044 354.404 487.142 355.459 487.289L355.967 490.452Z" fill="#416262"/>
<path d="M354.477 554.505L354.132 552.354L357.379 546.867L359.303 548.81L358.504 552.066L356.665 552.259L354.477 554.505Z" fill="#416262"/>
<path d="M297.856 543.292C297.24 546.487 294.751 547.048 293.175 548.886C292.994 549.163 292.31 548.72 291.744 548.608C291.446 546.752 292.749 546.229 293.092 544.95C295.198 546.016 295.037 541.401 297.209 542.674C297.436 542.856 297.653 543.063 297.856 543.292Z" fill="#416262"/>
<path d="M343.68 505.719C343.633 505.424 343.545 504.875 343.538 504.833C345.244 502.444 347.658 501.09 350.313 501.035C350.618 502.933 349.315 503.455 348.913 505.17L343.68 505.719Z" fill="#416262"/>
<path d="M278.744 560.435C279 564.439 275.741 564.223 274.647 566.654C274.43 567.106 273.411 566.784 272.174 566.913L273.158 564.408C273.844 562.449 276.133 562.853 276.69 560.693C276.819 560.293 278.047 560.507 278.744 560.435Z" fill="#416262"/>
<path d="M283.919 555.902C283.764 556.704 283.566 557.484 283.326 558.237C283.001 558.888 282.636 559.499 282.233 560.067L278.745 560.433C278.664 559.927 278.854 559.306 278.963 558.781C279.072 558.254 279.347 557.154 279.543 556.361L283.919 555.902Z" fill="#416262"/>
<path d="M392.433 492.629L393.892 492.477C395.493 493.809 395.075 495.825 395.28 497.906L393.49 498.608C393.125 498.256 392.807 497.822 392.556 497.33C392.305 496.838 392.126 496.299 392.027 495.744C391.929 495.188 391.914 494.626 391.984 494.092C392.054 493.558 392.206 493.06 392.433 492.629Z" fill="#416262"/>
<path d="M376.45 526.253L374.167 526.492C373.441 524.382 374.88 522.902 374.471 520.758L376.302 520.308C376.617 520.661 376.872 520.848 377.04 521.088C378.477 523.211 375.935 524.249 376.45 526.253Z" fill="#416262"/>
<path d="M320.099 524.148C319.581 525.268 318.876 526.204 318.027 526.899C317.179 527.593 316.205 528.03 315.167 528.182C314.883 526.411 316.07 525.771 316.483 524.528L320.099 524.148Z" fill="#416262"/>
<path d="M376.482 526.252L379.368 525.949C379.397 526.605 379.323 527.244 379.148 527.826C378.974 528.407 378.704 528.92 378.355 529.33C378.007 529.741 377.587 530.042 377.122 530.213C376.657 530.385 376.157 530.424 375.653 530.327C375.723 529.762 375.762 529.201 375.865 528.633C375.967 528.064 376.255 527.048 376.482 526.252Z" fill="#416262"/>
<path d="M368.072 529.106L366.271 526.122L367.811 523.259C369.47 524.757 369.004 527.078 369.531 528.953L368.072 529.106Z" fill="#416262"/>
<path d="M283.76 555.92C283.449 553.979 284.833 553.362 285.262 551.816L287.237 551.867C287.548 553.807 286.368 554.488 285.948 555.69L283.76 555.92Z" fill="#416262"/>
<path d="M374.586 514.44L375.216 518.363L372.33 518.665L371.707 514.785L374.586 514.44Z" fill="#416262"/>
<path d="M320.099 524.148C319.787 522.208 321.14 521.594 321.569 520.048L323.544 520.098C323.855 522.039 322.675 522.72 322.255 523.922L320.099 524.148Z" fill="#416262"/>
<path d="M321.725 516C321.413 514.06 322.766 513.446 323.227 511.897L326.172 514.375C324.68 516.333 323.079 515.601 321.725 516Z" fill="#416262"/>
<path d="M345.742 555.333C345.838 557.339 344.972 558.374 343.689 559.623L342.903 555.932L345.742 555.333Z" fill="#416262"/>
<path d="M350.219 500.446C351.898 498.855 351.898 498.855 354.392 499.323C353.545 501.684 351.648 500.511 350.219 500.446Z" fill="#416262"/>
<path d="M391.931 472.826C390.011 472.512 388.553 474.08 387.01 472.098C387.724 470.522 389.062 471.025 390.059 471.006C390.567 470.953 391.116 471.967 391.931 472.826Z" fill="#416262"/>
<path d="M355.967 490.452C356.973 490.69 358.063 489.246 358.94 491.298C357.148 492.386 357.148 492.386 355.967 490.452Z" fill="#416262"/>
<path d="M359.765 494.427C360.366 494.158 360.999 493.991 361.652 493.929C361.842 493.908 362.186 494.644 362.356 495.099C362.525 495.552 362.14 495.765 361.981 495.781C361.823 495.798 360.679 495.703 359.993 495.647L359.765 494.427Z" fill="#416262"/>
<path d="M347.048 498.378C346.046 499.77 345.267 499.938 344.242 498.973C344.499 496.759 345.513 497.253 347.048 498.378Z" fill="#416262"/>
<path d="M327.098 503.471C327.63 501.357 327.63 501.357 329.7 501.997C329.499 504.163 327.957 502.995 327.098 503.471Z" fill="#416262"/>
<path d="M327.1 503.472C326.562 505.544 326.562 505.544 324.524 504.9C324.693 502.739 326.234 503.906 327.1 503.472Z" fill="#416262"/>
<path d="M319.351 510.245C319.889 508.172 319.889 508.172 321.927 508.817C321.694 510.985 320.216 509.81 319.351 510.245Z" fill="#416262"/>
<path d="M372.298 518.669C371.767 520.783 371.767 520.783 369.728 520.139C369.929 517.974 371.376 519.152 372.298 518.669Z" fill="#416262"/>
<path d="M383.156 517.402C384.364 518.905 384.604 519.995 383.994 521.217C382.279 520.582 382.52 519.271 383.156 517.402Z" fill="#416262"/>
<path d="M372.734 530.63L369.848 530.933L369.53 528.951C370.141 528.712 370.799 528.644 371.465 528.748C371.963 529.039 372.341 529.986 372.734 530.63Z" fill="#416262"/>
<path d="M349.544 546.873C350.753 548.375 350.992 549.465 350.382 550.687C348.668 550.052 348.909 548.741 349.544 546.873Z" fill="#416262"/>
<path d="M380.841 480.08C381.373 477.965 381.373 477.965 383.443 478.606C383.208 480.561 381.698 479.389 380.841 480.08Z" fill="#416262"/>
<path d="M372.855 483.963L373.159 482.645C373.318 482.628 373.716 483.101 373.705 483.23C373.673 483.714 373.597 484.182 373.478 484.627L372.855 483.963Z" fill="#416262"/>
<path d="M368.559 486.128C368.288 486.414 367.993 486.66 367.678 486.864C367.678 486.864 367.293 486.476 367.1 486.282C367.371 485.995 367.666 485.75 367.982 485.546C367.982 485.546 368.367 485.934 368.559 486.128Z" fill="#416262"/>
<path d="M343.9 492.018L344.547 492.636C344.272 492.913 343.977 493.16 343.666 493.372C343.666 493.372 343.281 492.983 343.089 492.789L343.9 492.018Z" fill="#416262"/>
<path d="M337.38 496.602L338.33 494.487C339.584 496.071 338.454 496.061 337.38 496.602Z" fill="#416262"/>
<path d="M338.136 496.095L337.186 498.21C335.932 496.626 337.062 496.636 338.136 496.095Z" fill="#416262"/>
<path d="M396.953 491.855L395.938 491.361C396.063 491.133 396.186 490.692 396.319 490.721C396.688 490.82 397.05 490.984 397.397 491.209L396.953 491.855Z" fill="#416262"/>
<path d="M339.436 502.177C339.694 502.563 339.914 502.987 340.089 503.438C340.089 503.438 339.872 503.89 339.747 504.117C339.49 503.722 339.261 503.301 339.061 502.86C339.061 502.86 339.311 502.404 339.436 502.177Z" fill="#416262"/>
<path d="M319.696 509.994L318.685 512.329C317.524 510.522 318.654 510.531 319.696 509.994Z" fill="#416262"/>
<path d="M329.392 509.92L329.087 511.238C329.054 511.027 328.537 510.824 328.542 510.652C328.574 510.169 328.65 509.701 328.769 509.256L329.392 509.92Z" fill="#416262"/>
<path d="M314.069 515.517L313.765 516.835C313.573 516.641 313.215 516.421 313.22 516.249C313.247 515.777 313.326 515.322 313.454 514.895L314.069 515.517Z" fill="#416262"/>
<path d="M322.104 515.746L321.154 517.861C319.933 516.488 321.075 516.369 322.104 515.746Z" fill="#416262"/>
<path d="M330.825 514.831L329.875 516.947C328.655 515.573 329.765 515.457 330.825 514.831Z" fill="#416262"/>
<path d="M327.61 519.112L326.575 518.492C326.7 518.264 326.823 517.823 326.95 517.81C327.307 517.952 327.659 518.13 328.003 518.342L327.61 519.112Z" fill="#416262"/>
<path d="M374.215 514.738L375.159 512.58C376.419 514.206 375.251 514.157 374.215 514.738Z" fill="#416262"/>
<path d="M381.83 514.967L381.406 515.741C381.153 515.35 380.934 514.927 380.752 514.479C380.752 514.479 380.963 513.986 381.088 513.758L381.83 514.967Z" fill="#416262"/>
<path d="M386.067 513.839L385.762 515.158C385.538 514.967 385.174 514.705 385.178 514.533C385.231 514.064 385.32 513.609 385.444 513.175L386.067 513.839Z" fill="#416262"/>
<path d="M308.255 527.707L308.871 528.327C308.6 528.613 308.305 528.859 307.989 529.063C307.989 529.063 307.636 528.672 307.412 528.481L308.255 527.707Z" fill="#416262"/>
<path d="M755.569 481.76L755.145 482.533C754.889 482.128 754.667 481.69 754.484 481.23C754.484 481.23 754.702 480.778 754.827 480.551L755.569 481.76Z" fill="#416262"/>
<path d="M293.168 532.162L292.744 532.936C292.486 532.55 292.266 532.125 292.09 531.675C292.09 531.675 292.308 531.224 292.433 530.996L293.168 532.162Z" fill="#416262"/>
<path d="M380.13 524.066L381.081 521.951C382.335 523.535 381.204 523.524 380.13 524.066Z" fill="#416262"/>
<path d="M290.494 533.985L290.189 535.303C290.149 535.05 289.632 534.847 289.637 534.675C289.665 534.204 289.744 533.748 289.871 533.321L290.494 533.985Z" fill="#416262"/>
<path d="M380.509 523.813C380.725 525.162 380.39 525.884 379.368 525.948C379.113 524.56 379.487 523.878 380.509 523.813Z" fill="#416262"/>
<path d="M764.082 483.567C764.34 483.953 764.56 484.377 764.736 484.827C764.736 484.827 764.518 485.279 764.4 485.549C764.146 485.135 763.915 484.7 763.708 484.249C763.708 484.249 763.957 483.794 764.082 483.567Z" fill="#416262"/>
<path d="M767.433 489.78L765.696 488.203C766.755 486.763 766.872 488.294 767.433 489.78Z" fill="#416262"/>
<path d="M771.226 488.094L770.834 488.864C770.588 488.461 770.359 488.04 770.148 487.607C770.148 487.607 770.391 487.11 770.516 486.882L771.226 488.094Z" fill="#416262"/>
<path d="M293.968 539.152L294.591 539.816C294.32 540.101 294.025 540.348 293.709 540.551C293.709 540.551 293.356 540.159 293.132 539.968L293.968 539.152Z" fill="#416262"/>
<path d="M361.499 531.552L360.587 533.706C359.327 532.08 360.559 532.122 361.499 531.552Z" fill="#416262"/>
<path d="M369.849 530.935C369.998 531.863 370.14 532.749 369.148 532.596C368.895 532.622 368.637 531.62 368.39 531.088L369.849 530.935Z" fill="#416262"/>
<path d="M761.354 492.088L762.266 489.935C763.563 491.385 762.389 491.508 761.354 492.088Z" fill="#416262"/>
<path d="M766.94 488.715L768.702 490.246C767.65 491.728 767.501 490.2 766.94 488.715Z" fill="#416262"/>
<path d="M288.482 541.746L289.105 542.409C288.847 542.688 288.559 542.92 288.248 543.1C288.248 543.1 287.87 542.753 287.678 542.559L288.482 541.746Z" fill="#416262"/>
<path d="M264.772 558.169L265.716 556.011C266.882 557.647 265.745 557.595 264.772 558.169Z" fill="#416262"/>
<path d="M265.428 557.629L264.484 559.786C263.223 558.16 264.354 558.171 265.428 557.629Z" fill="#416262"/>
<path d="M362.158 549.923L363.109 547.807C364.363 549.391 363.327 549.371 362.158 549.923Z" fill="#416262"/>
<path d="M261.926 560.526L262.573 561.144C262.303 561.43 262.007 561.676 261.692 561.88C261.692 561.88 261.307 561.491 261.115 561.297L261.926 560.526Z" fill="#416262"/>
<path d="M346.525 553.578L347.469 551.421C348.729 553.047 347.592 552.994 346.525 553.578Z" fill="#416262"/>
<path d="M361.39 551.763C361.173 550.414 361.515 549.735 362.536 549.67C362.785 551.016 362.418 551.741 361.39 551.763Z" fill="#416262"/>
<path d="M269.151 561.74L270.186 562.361C270.027 562.377 269.938 563.03 269.805 563.001C269.447 562.892 269.096 562.727 268.759 562.511L269.151 561.74Z" fill="#416262"/>
<path d="M346.897 553.283C347.12 554.675 346.777 555.354 345.756 555.418C345.508 554.072 345.875 553.348 346.897 553.283Z" fill="#416262"/>
<path d="M354.795 556.487C354.066 556.563 353.431 556.63 353.412 555.302C353.358 554.965 354.099 554.759 354.477 554.505L354.795 556.487Z" fill="#416262"/>
<path d="M263.987 568.544L262.226 567.013C263.278 565.531 263.426 567.059 263.987 568.544Z" fill="#416262"/>
<path d="M350.384 559.136L351.302 557.024C352.563 558.65 351.426 558.597 350.384 559.136Z" fill="#416262"/>
<path d="M263.74 568.011C264.723 567.908 265.326 568.445 265.486 569.844C264.509 569.989 263.952 569.533 263.74 568.011Z" fill="#416262"/>
<path d="M270.242 567.33C270.509 567.713 270.74 568.136 270.927 568.587C270.927 568.587 270.716 569.08 270.56 569.312C270.316 568.896 270.095 568.461 269.899 568.009C269.899 568.009 270.117 567.557 270.242 567.33Z" fill="#416262"/>
<path d="M351.109 558.631L350.158 560.746C348.778 559.175 350.067 559.169 351.109 558.631Z" fill="#416262"/>
<path d="M342.339 563.066L341.94 563.794C341.682 563.408 341.462 562.983 341.286 562.533C341.286 562.533 341.504 562.081 341.629 561.854L342.339 563.066Z" fill="#416262"/>
<path d="M348.367 563.849L348.062 565.168C347.87 564.973 347.505 564.712 347.517 564.581C347.549 564.099 347.625 563.63 347.744 563.185L348.367 563.849Z" fill="#416262"/>
<path d="M224.325 598.092C224.109 596.743 224.451 596.064 225.473 596C225.721 597.346 225.354 598.071 224.325 598.092Z" fill="#416262"/>
<path d="M224.703 597.838L223.76 599.995C222.499 598.369 223.629 598.38 224.703 597.838Z" fill="#416262"/>
<path d="M219.176 601.378L219.569 600.607C219.827 600.994 220.047 601.418 220.223 601.869C220.223 601.869 220.005 602.32 219.887 602.59L219.176 601.378Z" fill="#416262"/>
<path d="M225.359 613.979C225.515 614.95 225.65 615.793 224.658 615.639C224.405 615.666 224.147 614.664 223.9 614.132L225.359 613.979Z" fill="#416262"/>
<path d="M186.621 628.591L184.853 627.019C185.912 625.578 186.06 627.106 186.621 628.591Z" fill="#416262"/>
</svg>
